# xmcd
#
# Track frame offsets:
#	150
#	19009
#	38021
#	56060
#	71365
#	88336
#	104636
#	121980
#	136551
#	149419
#	165153
#	179023
#	194599
#	209162
#	226906
#	243955
#	263602
#	278088
#	294603
#	308111
#	323283
#	341282
#
# Disc length: 4717 seconds
#
# Revision: 0
# Processed by: cddbd v1.5.2PL0 Copyright (c) Steve Scherf et al.
# Submitted via: EasyCDDAExtractor 11.5.0.1
#
DISCID=3d126b16
DTITLE=Various Artist - NCT 107
DYEAR=2008
DGENRE=Country
TTITLE0=Brad Paisley - I'm Still A Guy
TTITLE1=Rascal Flatts - Every Day
TTITLE2=Montgomery Gentry - Back When I Knew It All
TTITLE3=George Strait - I Saw God Today
TTITLE4=Mica Roberts ft. Toby Keith - Things A Mama Don't Know
TTITLE5=Crystal Shawanda - You Can Let Go
TTITLE6=Blake Shelton - Home
TTITLE7=Julianne Hough - That Song In My Head
TTITLE8=Jo Dee Messina - I'm Done
TTITLE9=Kristina Cornell - That's The Way It Feels
TTITLE10=Emily West - Rocks In Your Shoes
TTITLE11=Clint Black - Long Cool Woman
TTITLE12=The Lost Trailers - Holler Back
TTITLE13=Randy Owen - Braid My Hair
TTITLE14=Jeremy McComb - This Town Needs A Bar
TTITLE15=Deric Ruttan - First Time In A Long Time
TTITLE16=Zachary Hunter - It's A Long Road
TTITLE17=Trent Willmon - Broken In
TTITLE18=Sarah Johns - He Hates Me
TTITLE19=Jennifer Hanson - 73
TTITLE20=Bluefield - Butterfly
TTITLE21=Jeff Griffith - Holed Up In Some Honky Tonk
EXTD=
EXTT0=
EXTT1=
EXTT2=
EXTT3=
EXTT4=
EXTT5=
EXTT6=
EXTT7=
EXTT8=
EXTT9=
EXTT10=
EXTT11=
EXTT12=
EXTT13=
EXTT14=
EXTT15=
EXTT16=
EXTT17=
EXTT18=
EXTT19=
EXTT20=
EXTT21=
PLAYORDER=
